<svg xmlns="http://www.w3.org/2000/svg" width="134.917" height="134.919" viewBox="0 0 134.917 134.919"><g transform="translate(0 0)"><g transform="translate(0 0)"><path d="M1625.019,981.068a67.456,67.456,0,1,1,62.438,72.126A67.46,67.46,0,0,1,1625.019,981.068Z" transform="translate(-1624.843 -918.453)" fill="#ffbb65" fill-rule="evenodd"/><g transform="translate(10.207 10.211)"><path d="M1641.7,988.306a57.25,57.25,0,1,1,52.993,61.212A57.25,57.25,0,0,1,1641.7,988.306Z" transform="translate(-1641.551 -935.168)" fill="#ffbb65" fill-rule="evenodd"/></g><g transform="translate(17.133 20.874)"><path d="M1736.6,952.625a57.256,57.256,0,0,1-83.71,73.81,57.253,57.253,0,1,0,83.71-73.81Z" transform="translate(-1652.891 -952.625)" fill="#ffbb65" fill-rule="evenodd"/></g><g transform="translate(16.504 16.513)"><path d="M1655.343,998.268a50.535,50.535,0,0,1,92.576-24.22,50.54,50.54,0,1,0-87.687,49.822A50.234,50.234,0,0,1,1655.343,998.268Z" transform="translate(-1651.861 -945.485)" fill="#ffbb65" fill-rule="evenodd"/></g><g transform="translate(48.034 30.479)"><path d="M1730.271,968.813l-.526,7.278a15.3,15.3,0,0,1,6.955,3.408,22.267,22.267,0,0,1,4.827,7.1l-7.53,3.528q-2.838-6.176-8.108-6.555a7.861,7.861,0,0,0-5.56,1.54,6.205,6.205,0,0,0-2.5,4.668,5.941,5.941,0,0,0,1.428,4.508q1.579,1.824,6.608,4.542a69.465,69.465,0,0,1,7.149,4.378,19.72,19.72,0,0,1,4.165,3.784,15.552,15.552,0,0,1,3.407,11.251,17.609,17.609,0,0,1-4.584,10.865,18.365,18.365,0,0,1-10.489,5.734l-.551,7.684-6.5-.468.535-7.458q-7.188-1.717-10.734-5.812t-4.793-12.211l8.287-1.12q1.267,5.763,3.5,8.35a10.57,10.57,0,0,0,13.573.642,8.925,8.925,0,0,0,3.19-6.526,7.921,7.921,0,0,0-1.839-6.062,21.191,21.191,0,0,0-3.22-2.679,60.693,60.693,0,0,0-5.521-3.359q-6.972-3.751-9.041-6.623a14.1,14.1,0,0,1-2.9-9.943,14.254,14.254,0,0,1,1.212-4.914,13.577,13.577,0,0,1,2.771-4,15.376,15.376,0,0,1,4.223-2.963,21.5,21.5,0,0,1,5.536-1.766l.521-7.269Z" transform="translate(-1703.478 -968.35)" fill="#ffbb65" fill-rule="evenodd"/></g></g></g><g transform="translate(28.341 16.292)"><g transform="translate(0 12.028)"><g transform="translate(0 0)"><path d="M1020.575,1663.049c-16.738-8.058-23.594-28.339-15.78-45.191L1021.7,1581.4l14.9,6.911-16.966,36.589a17.657,17.657,0,0,0,7.846,23.243,17.418,17.418,0,0,0,23.556-8.248l17.132-36.948,14.9,6.91-17.132,36.948A33.864,33.864,0,0,1,1020.575,1663.049Z" transform="translate(-1001.577 -1581.399)" fill="#fffae7"/><path d="M1035.2,1667.4a34.459,34.459,0,0,1-15.063-3.449,34,34,0,0,1-10.946-8.335,34.746,34.746,0,0,1-6.663-11.537,35.616,35.616,0,0,1,1.355-26.641l16.905-36.459a1,1,0,0,1,1.328-.487l14.9,6.911a1,1,0,0,1,.487,1.328l-16.966,36.589a16.717,16.717,0,0,0,7.385,21.928,16.223,16.223,0,0,0,7.3,1.726,16.472,16.472,0,0,0,14.9-9.5l17.132-36.948a1,1,0,0,1,1.328-.487l14.9,6.91a1,1,0,0,1,.487,1.328l-17.132,36.948A34.874,34.874,0,0,1,1035.2,1667.4Zm-13.017-84.672-16.484,35.552c-7.63,16.454-.763,36.134,15.306,43.87a32.475,32.475,0,0,0,14.2,3.251,32.972,32.972,0,0,0,29.832-19.016l16.711-36.041-13.089-6.069-16.711,36.041a18.4,18.4,0,0,1-24.909,8.722,18.058,18.058,0,0,1-9.1-10.562,19.014,19.014,0,0,1,.8-14l16.545-35.682Z" transform="translate(-1001.577 -1581.399)" fill="#226b80"/></g><path d="M14.9,7.911a1,1,0,0,1-.42-.093L-.421.907A1,1,0,0,1-.907-.421,1,1,0,0,1,.421-.907L15.324,6A1,1,0,0,1,14.9,7.911Z" transform="translate(14.415 12.27)" fill="#226b80"/><path d="M14.926,7.922a1,1,0,0,1-.42-.093L-.421.907A1,1,0,0,1-.907-.421,1,1,0,0,1,.421-.907L15.348,6.014a1,1,0,0,1-.421,1.907Z" transform="translate(60.892 33.82)" fill="#226b80"/></g><path d="M0,10.706a1,1,0,0,1-.42-.093A1,1,0,0,1-.907,9.285l4.5-9.706A1,1,0,0,1,4.921-.907,1,1,0,0,1,5.408.421l-4.5,9.706A1,1,0,0,1,0,10.706Z" transform="translate(76.323 22.742)" fill="#226b80"/><path d="M1.68,10.118A1,1,0,0,1,.7,9.3L-.983.181a1,1,0,0,1,.8-1.165,1,1,0,0,1,1.165.8L2.665,8.937a1,1,0,0,1-.985,1.182Z" transform="translate(70.523 21.462)" fill="#226b80"/><path d="M0,5.608a1,1,0,0,1-.869-.5A1,1,0,0,1-.5,3.74L7.549-.868A1,1,0,0,1,8.914-.5,1,1,0,0,1,8.543.868L.5,5.476A1,1,0,0,1,0,5.608Z" transform="translate(80.108 29.637)" fill="#226b80"/><path d="M0,10.706a1,1,0,0,1-.42-.093A1,1,0,0,1-.907,9.285l4.5-9.706A1,1,0,0,1,4.921-.907,1,1,0,0,1,5.408.421l-4.5,9.706A1,1,0,0,1,0,10.706Z" transform="translate(30.037 1.28)" fill="#226b80"/><path d="M1.68,10.118A1,1,0,0,1,.7,9.3L-.983.181a1,1,0,0,1,.8-1.165,1,1,0,0,1,1.165.8L2.665,8.937a1,1,0,0,1-.985,1.182Z" transform="translate(24.237)" fill="#226b80"/><path d="M0,5.608a1,1,0,0,1-.869-.5A1,1,0,0,1-.5,3.74L7.549-.868A1,1,0,0,1,8.914-.5,1,1,0,0,1,8.543.868L.5,5.475A1,1,0,0,1,0,5.608Z" transform="translate(33.823 8.175)" fill="#226b80"/></g></svg>