<svg xmlns="http://www.w3.org/2000/svg" width="134.917" height="134.919" viewBox="0 0 134.917 134.919"><g transform="translate(5267 9172)"><g transform="translate(-5267 -9172)"><g transform="translate(0 0)"><path d="M1625.019,981.068a67.456,67.456,0,1,1,62.438,72.126A67.46,67.46,0,0,1,1625.019,981.068Z" transform="translate(-1624.843 -918.453)" fill="#ffbb65" fill-rule="evenodd"/><g transform="translate(10.207 10.211)"><path d="M1641.7,988.306a57.25,57.25,0,1,1,52.993,61.212A57.25,57.25,0,0,1,1641.7,988.306Z" transform="translate(-1641.551 -935.168)" fill="#ffbb65" fill-rule="evenodd"/></g><g transform="translate(17.133 20.874)"><path d="M1736.6,952.625a57.256,57.256,0,0,1-83.71,73.81,57.253,57.253,0,1,0,83.71-73.81Z" transform="translate(-1652.891 -952.625)" fill="#ffbb65" fill-rule="evenodd"/></g><g transform="translate(16.504 16.513)"><path d="M1655.343,998.268a50.535,50.535,0,0,1,92.576-24.22,50.54,50.54,0,1,0-87.687,49.822A50.234,50.234,0,0,1,1655.343,998.268Z" transform="translate(-1651.861 -945.485)" fill="#ffbb65" fill-rule="evenodd"/></g></g></g><g transform="translate(-6526.267 -9387.32)"><g transform="translate(1280.267 250.32)"><g transform="translate(0)"><rect width="74.001" height="54.923" rx="6" transform="translate(0 9.452)" fill="#fffae7"/><path d="M6-1H68a7.008,7.008,0,0,1,7,7V48.923a7.008,7.008,0,0,1-7,7H6a7.008,7.008,0,0,1-7-7V6A7.008,7.008,0,0,1,6-1ZM68,53.923a5.006,5.006,0,0,0,5-5V6a5.006,5.006,0,0,0-5-5H6A5.006,5.006,0,0,0,1,6V48.923a5.006,5.006,0,0,0,5,5Z" transform="translate(0 9.452)" fill="#226b80"/><path d="M1354.268,323.121,1346.65,338.3l-1.488,3.128a13.6,13.6,0,0,1-12.292,7.784h-31.207a13.6,13.6,0,0,1-12.258-7.714l-1.556-3.268-7.583-15.109" transform="translate(-1280.267 -304.793)" fill="#fffae7"/><path d="M1332.871,350.212h-31.207a14.6,14.6,0,0,1-13.16-8.281l-1.553-3.261-7.578-15.1a1,1,0,0,1,1.788-.9l7.583,15.109.009.019,1.556,3.268a12.657,12.657,0,0,0,11.355,7.144h31.207A12.646,12.646,0,0,0,1344.258,341l1.489-3.13.009-.019,7.618-15.179a1,1,0,0,1,1.788.9l-7.613,15.169-1.483,3.119a14.6,14.6,0,0,1-13.195,8.354Z" transform="translate(-1280.267 -304.793)" fill="#226b80"/><rect width="15.112" height="5.608" rx="2.804" transform="translate(29.445 41.974)" fill="#fadc8c"/><path d="M2.8-1h9.5a3.8,3.8,0,0,1,0,7.608H2.8A3.8,3.8,0,1,1,2.8-1Zm9.5,5.608a1.8,1.8,0,0,0,0-3.608H2.8a1.8,1.8,0,0,0,0,3.608Z" transform="translate(29.445 41.974)" fill="#226b80"/><path d="M1401.859,250.32h-20.575a1.712,1.712,0,0,0-1.712,1.712v7.713h5.109v-3.626a1.252,1.252,0,0,1,1.252-1.252h11.276a1.252,1.252,0,0,1,1.252,1.252v3.626h5.109v-7.713A1.712,1.712,0,0,0,1401.859,250.32Z" transform="translate(-1354.571 -250.32)" fill="#fadc8c"/><path d="M1381.284,249.32h20.575a2.715,2.715,0,0,1,2.712,2.712v7.713a1,1,0,0,1-1,1h-5.109a1,1,0,0,1-1-1v-3.626a.252.252,0,0,0-.252-.252h-11.276a.253.253,0,0,0-.252.252v3.626a1,1,0,0,1-1,1h-5.109a1,1,0,0,1-1-1v-7.713A2.715,2.715,0,0,1,1381.284,249.32Zm21.287,9.425v-6.713a.713.713,0,0,0-.712-.712h-20.575a.713.713,0,0,0-.712.712v6.713h3.109v-2.626a2.255,2.255,0,0,1,2.252-2.252h11.276a2.255,2.255,0,0,1,2.252,2.252v2.626Z" transform="translate(-1354.571 -250.32)" fill="#226b80"/></g></g><g transform="translate(1335.254 267.597)"><circle cx="19.014" cy="19.014" r="19.014" transform="translate(0 0)" fill="#c8f2ff"/><path d="M19.014-1A20.008,20.008,0,0,1,33.166,33.166,20.014,20.014,0,1,1,11.223.573,19.89,19.89,0,0,1,19.014-1Zm0,38.028A18.014,18.014,0,1,0,1,19.014,18.034,18.034,0,0,0,19.014,37.028Z" transform="translate(0 0)" fill="#226b80"/><g transform="translate(12.951 5.822)"><path d="M1556.441,423.473h-.1a6.618,6.618,0,0,1-5.914-3.423,8.713,8.713,0,0,1-1.059-3.25.75.75,0,0,1,1.495-.126,7.3,7.3,0,0,0,.893,2.677,5.137,5.137,0,0,0,4.623,2.622h.008a6.887,6.887,0,0,0,2.448-.462,3.937,3.937,0,0,0,2.609-3.4.559.559,0,0,1,.011-.069c.03-.155.506-2.871-2.863-4.525a8.255,8.255,0,0,0-1.348-.5l-.736-.214c-1.256-.289-4.261-1.183-5.557-3.31a4.279,4.279,0,0,1-.461-3.381,5.71,5.71,0,0,1,7.2-4.655,5.837,5.837,0,0,1,5.034,5.845.75.75,0,0,1-.75.75h0a.75.75,0,0,1-.75-.75,4.34,4.34,0,0,0-3.8-4.37,4.758,4.758,0,0,0-3.738.6,4.7,4.7,0,0,0-1.717,2.841.773.773,0,0,1-.016.078,2.8,2.8,0,0,0,.28,2.262c1.035,1.7,3.807,2.444,4.632,2.633l.042.011.757.22a9.7,9.7,0,0,1,1.591.595,6.288,6.288,0,0,1,3.523,3.879,5.1,5.1,0,0,1,.153,2.267,5.41,5.41,0,0,1-3.589,4.608A8.418,8.418,0,0,1,1556.441,423.473Z" transform="translate(-1550.12 -399.663)" fill="#226b80"/><path d="M0,27.134a.75.75,0,0,1-.75-.75V0A.75.75,0,0,1,0-.75.75.75,0,0,1,.75,0V26.384A.75.75,0,0,1,0,27.134Z" transform="translate(6.244)" fill="#226b80"/></g></g></g></g></svg>