<svg xmlns="http://www.w3.org/2000/svg" xmlns:xlink="http://www.w3.org/1999/xlink" width="92.569" height="35.293" viewBox="0 0 92.569 35.293"><defs><linearGradient id="a" x1="0.5" x2="0.5" y2="1" gradientUnits="objectBoundingBox"><stop offset="0" stop-color="#116eb9"/><stop offset="1" stop-color="#1894f6"/></linearGradient></defs><g transform="translate(-21.278 35.328) rotate(-90)"><g transform="translate(0.034 113.847) rotate(-90)"><rect width="82.22" height="24.483" transform="translate(82.22 24.483) rotate(180)" fill="#e8e8e8"/><g transform="translate(0 13.451)"><rect width="4.16" height="4.16" transform="translate(88.408 17.682)" fill="url(#a)"/><rect width="4.16" height="4.16" transform="translate(79.568 17.682)" fill="url(#a)"/><rect width="4.16" height="4.16" transform="translate(70.727 17.682)" fill="url(#a)"/><rect width="4.16" height="4.16" transform="translate(61.886 17.682)" fill="url(#a)"/><rect width="4.16" height="4.16" transform="translate(53.045 17.682)" fill="url(#a)"/><rect width="4.16" height="4.16" transform="translate(44.204 17.682)" fill="url(#a)"/><rect width="4.16" height="4.16" transform="translate(35.363 17.682)" fill="url(#a)"/><rect width="4.16" height="4.16" transform="translate(26.523 17.682)" fill="url(#a)"/><rect width="4.16" height="4.16" transform="translate(17.682 17.682)" fill="url(#a)"/><rect width="4.16" height="4.16" transform="translate(8.841 17.682)" fill="url(#a)"/><rect width="4.16" height="4.16" transform="translate(0 17.682)" fill="url(#a)"/><rect width="4.16" height="4.16" transform="translate(88.408 8.841)" fill="url(#a)"/><rect width="4.16" height="4.16" transform="translate(79.568 8.841)" fill="url(#a)"/><rect width="4.16" height="4.16" transform="translate(70.727 8.841)" fill="url(#a)"/><rect width="4.16" height="4.16" transform="translate(61.886 8.841)" fill="url(#a)"/><rect width="4.16" height="4.16" transform="translate(53.045 8.841)" fill="url(#a)"/><rect width="4.16" height="4.16" transform="translate(44.204 8.841)" fill="url(#a)"/><rect width="4.16" height="4.16" transform="translate(35.363 8.841)" fill="url(#a)"/><rect width="4.16" height="4.16" transform="translate(26.523 8.841)" fill="url(#a)"/><rect width="4.16" height="4.16" transform="translate(17.682 8.841)" fill="url(#a)"/><rect width="4.16" height="4.16" transform="translate(8.841 8.841)" fill="url(#a)"/><rect width="4.16" height="4.16" transform="translate(0 8.841)" fill="url(#a)"/><rect width="4.16" height="4.16" transform="translate(88.408)" fill="url(#a)"/><rect width="4.16" height="4.16" transform="translate(79.568)" fill="url(#a)"/><rect width="4.16" height="4.16" transform="translate(70.727)" fill="url(#a)"/><rect width="4.16" height="4.16" transform="translate(61.886)" fill="url(#a)"/><rect width="4.16" height="4.16" transform="translate(53.045)" fill="url(#a)"/><rect width="4.16" height="4.16" transform="translate(44.204)" fill="url(#a)"/><rect width="4.16" height="4.16" transform="translate(35.363)" fill="url(#a)"/><rect width="4.16" height="4.16" transform="translate(26.523)" fill="url(#a)"/><rect width="4.16" height="4.16" transform="translate(17.682)" fill="url(#a)"/><rect width="4.16" height="4.16" transform="translate(8.841)" fill="url(#a)"/><rect width="4.16" height="4.16" fill="url(#a)"/></g></g></g></svg>