<svg xmlns="http://www.w3.org/2000/svg" width="22.629" height="22.629" viewBox="0 0 22.629 22.629"><g transform="translate(-3.5 -3.5)"><path d="M13.668,3.5A10.168,10.168,0,1,1,3.5,13.668,10.18,10.18,0,0,1,13.668,3.5Zm0,18.337A8.168,8.168,0,1,0,5.5,13.668,8.178,8.178,0,0,0,13.668,21.837Z" transform="translate(0 0)"/><path d="M29.96,30.96a1,1,0,0,1-.707-.293l-4.985-4.985a1,1,0,0,1,1.414-1.414l4.985,4.985a1,1,0,0,1-.707,1.707Z" transform="translate(-4.831 -4.831)"/><path d="M16.5,19.876a1,1,0,0,1-1-1V12a1,1,0,0,1,2,0v6.876A1,1,0,0,1,16.5,19.876Z" transform="translate(-2.832 -1.77)"/><path d="M18.876,17.5H12a1,1,0,0,1,0-2h6.876a1,1,0,0,1,0,2Z" transform="translate(-1.77 -2.832)"/></g></svg>