<svg xmlns="http://www.w3.org/2000/svg" width="458.52" height="562" viewBox="0 0 458.52 562"><g transform="translate(-749.5 -647.87)"><g transform="translate(991.199 831.712)"><g transform="translate(176.917 171.669)"><circle cx="19.952" cy="19.952" r="19.952" fill="#fcc718"/><path d="M2111.645,1780.852l1.535,3.109a2.459,2.459,0,0,0,1.852,1.346l3.432.5a2.46,2.46,0,0,1,1.364,4.2l-2.483,2.421a2.459,2.459,0,0,0-.708,2.177l.586,3.418a2.46,2.46,0,0,1-3.57,2.594l-3.069-1.614a2.461,2.461,0,0,0-2.29,0l-3.069,1.614a2.46,2.46,0,0,1-3.57-2.594l.586-3.418a2.46,2.46,0,0,0-.708-2.177l-2.483-2.421a2.46,2.46,0,0,1,1.363-4.2l3.432-.5a2.459,2.459,0,0,0,1.853-1.346l1.535-3.109A2.46,2.46,0,0,1,2111.645,1780.852Z" transform="translate(-2089.487 -1770.238)" fill="#fff"/></g><path d="M1816.648,1213.28s4.736-3.032,12.468,1.239c6.924,3.826,5.354,10.342,6.374,15.67,2.664,13.924,14.552,20.71,28.375,25.15,18.207,5.847,18.408,19.9,18.165,25.7-.665,15.792-8.491,26.429-25.549,28.133-13.494,1.348-45.131,8.85-62.706-41.194-5.449-15.515,11.649-25.54,5.313-31.505C1778.451,1217.038,1796.755,1200.076,1816.648,1213.28Z" transform="translate(-1701.973 -1208.6)" fill="#12263f"/><path d="M2119.645,1710.844a20.347,20.347,0,0,1,7.011,4.376c.42-6.281-5.5-14.718-7.821-16.208-2.476-1.589-9.134-8.23-9.134-8.23l-6.438,3.507s8.511,13.821,8.992,21.494a.931.931,0,0,0,1.782.324,13.638,13.638,0,0,0,1.384-4.206C2115.767,1709.289,2118.964,1710.589,2119.645,1710.844Z" transform="translate(-1915.957 -1537.979)" fill="#d57241"/><path d="M1895.333,1426.739s20.461,20.847,29.6,31.229c8.338,9.474,26.233,21.541,32.981,30.432l9.515-4.249a309.906,309.906,0,0,0-17.882-48.9c-20.819-44.594-46.188-51.584-46.188-51.584C1896.452,1384.14,1882.323,1418.188,1895.333,1426.739Z" transform="translate(-1770.292 -1328.188)" fill="#26aab7"/><path d="M1545.255,1336.982c.593-2.154-4.421-5.875-6.409-6.9-4.926-2.53-8.378-3.654-12.891-6.28-1.406-.818-3.267-.082-2.894.827.381.928,2.319,2.456,3.573,4.032,3.662,4.605-9.194,1.11-9.194,1.11s-8.667-3.188-3.706,4.21c3.672,5.477,12.709,5.375,15.572,4.7s11.438-.411,11.438-.411Z" transform="translate(-1512.202 -1287.056)" fill="#d57241"/><path d="M1668.066,1365.684c-15.925,0-34.993,24.668-34.993,24.668-8.4-2.978-18.752-10.679-35.095-31.139l-9.795,3.678s8.49,43.734,31.333,60.488,67.9-29.131,67.9-29.131S1686,1365.684,1668.066,1365.684Z" transform="translate(-1564.105 -1311.484)" fill="#26aab7"/><path d="M1732.565,1457.872s-35.273-12.322-42.866-.144c-7.416,11.894-1.262,22.948-9.162,26.078s-15.186-8.321-26.258-7.278c0,0,6.713,9.5,16,13.271C1681.63,1494.406,1698.505,1490.989,1732.565,1457.872Z" transform="translate(-1609.255 -1375.108)" fill="#71cdd8"/><path d="M2060.121,2176.295a186.7,186.7,0,0,0,18.233,36.406,81.732,81.732,0,0,1-.5,8.509s3.089.846,15.969,12.149c9.518,8.351,8.923-1.3-3.609-15.8l-9.7-49.572S2071.239,2156.332,2060.121,2176.295Z" transform="translate(-1886.486 -1861.65)" fill="#d57241"/><path d="M1710.483,2253.874c.2.9.317,13.969-.517,34.295,0,0-.512,2.524-1.155,5.113,0,0,.809-2.26-16.55-.094-14.461,1.805-16.806-1.595,7.5-9.042l-8.779-32.965S1707.452,2240.222,1710.483,2253.874Z" transform="translate(-1627.787 -1917.946)" fill="#d57241"/><path d="M1840.475,1260.346s-.041-12.922-10.6-14.686c-8-1.337-11.34,7.631-12.039,17.775s4.4,17.33,10.264,16.105c5.405-1.127,8.832-4.558,12.53-10.089a5.805,5.805,0,0,0,5.479-6.317C1845.935,1256.448,1840.475,1260.346,1840.475,1260.346Z" transform="translate(-1720.936 -1233.825)" fill="#d57241"/><path d="M1829.5,1330.489s3.69-.612,6.222-14.595l13.251-9.609a59.72,59.72,0,0,0,3.286,25.086s-1.712,17.639-13.256,18.17C1831.992,1349.863,1830.134,1335.677,1829.5,1330.489Z" transform="translate(-1728.949 -1275.329)" fill="#d57241"/><path d="M1833.241,1286.089s-1.874,4.423-3.283,5.518.636,3.112,3.36,2.575C1834.391,1293.971,1833.241,1286.089,1833.241,1286.089Z" transform="translate(-1728.949 -1261.533)" fill="#c96539"/><path d="M1841.91,1340.778a31.113,31.113,0,0,0,10.4-5.525c2.073-1.594.795,4.024-2.579,7.31-2.912,2.836-6.045,3.1-9.473,3.1C1840.26,1345.661,1841.353,1342.846,1841.91,1340.778Z" transform="translate(-1736.299 -1294.926)" fill="#c96539"/><path d="M1824.559,1285.145a1.268,1.268,0,1,1-1.2-1.332A1.268,1.268,0,0,1,1824.559,1285.145Z" transform="translate(-1723.842 -1259.977)" fill="#303dcf"/><path d="M1858.851,1286.6a1.268,1.268,0,1,1-1.2-1.332A1.268,1.268,0,0,1,1858.851,1286.6Z" transform="translate(-1747.266 -1260.968)" fill="#303dcf"/><path d="M1860.391,1270.773a16.9,16.9,0,0,0-2.806-.174,1.291,1.291,0,0,0-1.128,1.417,1.31,1.31,0,0,0,1.417,1.129,12.843,12.843,0,0,1,2.119.159A1.281,1.281,0,0,0,1860.391,1270.773Z" transform="translate(-1747.359 -1250.95)" fill="#303dcf"/><path d="M1822.655,1268.233a8.135,8.135,0,0,0-2.151.055,1.292,1.292,0,0,0-1.026,1.492,1.306,1.306,0,0,0,1.492,1.026c.128-.02.256-.038.385-.052.061-.007.122-.011.183-.015h.056c.281.018.559.014.841.046a1.294,1.294,0,0,0,1.386-1.167A1.307,1.307,0,0,0,1822.655,1268.233Z" transform="translate(-1722.085 -1249.303)" fill="#303dcf"/><path d="M1828.938,1317.161l7.13-1.374s.671,4.019-3.135,4.757C1828.807,1321.344,1828.938,1317.161,1828.938,1317.161Z" transform="translate(-1728.565 -1281.819)" fill="#fff"/><path d="M1703.233,1608.14a222.757,222.757,0,0,0-14.257,24.589c-14.7,30.634-35.756,85.562-35.756,97.984,0,27.838,10.6,53.895,19,83.006l19.095,1.464-.939-72.965,36.515-74.555,60.687,139.491,18.717-2.971s-9.219-68.446-27.382-129.834c-12.974-43.848-22.055-61.76-21.9-62.838C1757.018,1611.51,1731.045,1597.406,1703.233,1608.14Z" transform="translate(-1608.532 -1478.773)" fill="#12263f"/><path d="M2102.463,2123.631l-11.481,1.822s-6.464-21.236-3.355-29.917,1.625-17.426,5.944-23.782C2093.571,2071.754,2100.021,2107.233,2102.463,2123.631Z" transform="translate(-1904.698 -1798.222)" fill="#00020d"/><path d="M1786.144,1376.787s2.45,3.107,9.49,3.933c2.653.312,7.974-2.115,12.195-6.176,0,0,6.017,1.532,9.594,2.523,15.677,4.344,22.617,15.775,19.811,41.679-1.314,12.131-3.3,37.026-3.3,37.026l-54.94-1.745-12.131-39.7S1760,1386.265,1786.144,1376.787Z" transform="translate(-1685.606 -1321.956)" fill="#26aab7"/><path d="M1790.661,1780.447l-3.686-11.231s-11.219,11.741-30.743,49.621c-3.449,6.691-10.679,20.823-9.542,29.684,1.681,13.1,6.2,38.434,7.965,46.006l-.509-39.524Z" transform="translate(-1672.299 -1591.557)" fill="#133865"/><path d="M1703.6,2368.2l-.116,7.255-26.447,0s-7.668.408-3.913-4.645c3.785-5.094,13.917-4.976,20.27-6.632,0,0-8.678,2.81-14,4.98A64.17,64.17,0,0,0,1703.6,2368.2Z" transform="translate(-1621.421 -1997.974)" fill="#1565c0"/><path d="M2113.978,2315.735l-1.612,8.572,19.364,17.094s6.125,4.63,5.843-1.658c-.285-6.339-8.2-16.519-11.664-18.943,0,0,7.239,9.442,7.394,14.065C2133.3,2334.865,2123.07,2325.6,2113.978,2315.735Z" transform="translate(-1922.175 -1964.885)" fill="#1565c0"/><path d="M1895.109,1315.71a1.515,1.515,0,1,0,.754-2.005A1.515,1.515,0,0,0,1895.109,1315.71Z" transform="translate(-1773.673 -1280.305)" fill="#fff"/><path d="M1865.3,1481s-11.115-.078-14.267,12.026c-4.873,18.719-38.075,11.72-44.136,33.721l54.94,1.745S1864.547,1499.456,1865.3,1481Z" transform="translate(-1713.51 -1394.678)" fill="#71cdd8"/></g><g transform="translate(749.5 656.87)"><rect width="280.525" height="520.698" rx="22" transform="translate(0 0)" fill="#303dcf"/><rect width="234.57" height="471.711" rx="15" transform="translate(22.978 24.494)" fill="#fff"/><g transform="translate(47.298 73.097)"><path d="M6-1H179.824a7.008,7.008,0,0,1,7,7V74.126a7.008,7.008,0,0,1-7,7H6a7.008,7.008,0,0,1-7-7V6A7.008,7.008,0,0,1,6-1ZM179.824,79.126a5.006,5.006,0,0,0,5-5V6a5.006,5.006,0,0,0-5-5H6A5.006,5.006,0,0,0,1,6V74.126a5.006,5.006,0,0,0,5,5Z" fill="#303dcf"/><circle cx="25.246" cy="25.246" r="25.246" transform="translate(8.197 60.939) rotate(-80.783)" fill="#26aab7"/><g transform="translate(70.854 21.33)"><path d="M94.153,4H0V-4H94.153Z" fill="#303dcf"/><path d="M94.153,4H0V-4H94.153Z" transform="translate(0 18.733)" fill="#303dcf"/><path d="M47.076,4H0V-4H47.076Z" transform="translate(0 37.466)" fill="#303dcf"/></g><g transform="translate(81.076 69.908)"><rect width="91.193" height="21.924" rx="10.962" fill="#1565c0"/><g transform="translate(7.086 5.003)"><path d="M1184.378,1124.684l.854,1.73a1.369,1.369,0,0,0,1.031.749l1.909.277a1.369,1.369,0,0,1,.758,2.335l-1.381,1.347a1.368,1.368,0,0,0-.394,1.211l.326,1.9a1.369,1.369,0,0,1-1.986,1.443l-1.708-.9a1.369,1.369,0,0,0-1.274,0l-1.708.9a1.369,1.369,0,0,1-1.986-1.443l.326-1.9a1.37,1.37,0,0,0-.394-1.211l-1.381-1.347a1.369,1.369,0,0,1,.759-2.335l1.909-.277a1.369,1.369,0,0,0,1.031-.749l.854-1.73A1.369,1.369,0,0,1,1184.378,1124.684Z" transform="translate(-1176.957 -1123.922)" fill="#fcc718"/><path d="M1235.366,1124.684l.854,1.73a1.369,1.369,0,0,0,1.031.749l1.909.277a1.369,1.369,0,0,1,.759,2.335l-1.381,1.347a1.369,1.369,0,0,0-.394,1.211l.326,1.9a1.369,1.369,0,0,1-1.986,1.443l-1.708-.9a1.369,1.369,0,0,0-1.274,0l-1.708.9a1.369,1.369,0,0,1-1.986-1.443l.326-1.9a1.368,1.368,0,0,0-.394-1.211l-1.381-1.347a1.369,1.369,0,0,1,.758-2.335l1.909-.277a1.369,1.369,0,0,0,1.031-.749l.854-1.73A1.369,1.369,0,0,1,1235.366,1124.684Z" transform="translate(-1211.787 -1123.922)" fill="#fcc718"/><path d="M1286.354,1124.684l.854,1.73a1.369,1.369,0,0,0,1.031.749l1.909.277a1.369,1.369,0,0,1,.759,2.335l-1.382,1.347a1.369,1.369,0,0,0-.394,1.211l.326,1.9a1.369,1.369,0,0,1-1.986,1.443l-1.708-.9a1.368,1.368,0,0,0-1.274,0l-1.708.9a1.369,1.369,0,0,1-1.986-1.443l.326-1.9a1.367,1.367,0,0,0-.394-1.211l-1.381-1.347a1.369,1.369,0,0,1,.758-2.335l1.909-.277a1.369,1.369,0,0,0,1.031-.749l.854-1.73A1.369,1.369,0,0,1,1286.354,1124.684Z" transform="translate(-1246.616 -1123.922)" fill="#fcc718"/><path d="M1337.342,1124.684l.854,1.73a1.369,1.369,0,0,0,1.031.749l1.909.277a1.369,1.369,0,0,1,.759,2.335l-1.382,1.347a1.369,1.369,0,0,0-.394,1.211l.326,1.9a1.369,1.369,0,0,1-1.986,1.443l-1.708-.9a1.367,1.367,0,0,0-1.273,0l-1.708.9a1.369,1.369,0,0,1-1.986-1.443l.326-1.9a1.369,1.369,0,0,0-.394-1.211l-1.382-1.347a1.369,1.369,0,0,1,.759-2.335l1.909-.277a1.368,1.368,0,0,0,1.031-.749l.854-1.73A1.369,1.369,0,0,1,1337.342,1124.684Z" transform="translate(-1281.446 -1123.922)" fill="#fff" opacity="0.35"/><path d="M1388.33,1124.684l.854,1.73a1.369,1.369,0,0,0,1.031.749l1.909.277a1.369,1.369,0,0,1,.759,2.335l-1.382,1.347a1.369,1.369,0,0,0-.394,1.211l.326,1.9a1.369,1.369,0,0,1-1.986,1.443l-1.708-.9a1.369,1.369,0,0,0-1.274,0l-1.707.9a1.369,1.369,0,0,1-1.986-1.443l.326-1.9a1.369,1.369,0,0,0-.394-1.211l-1.382-1.347a1.369,1.369,0,0,1,.759-2.335l1.909-.277a1.369,1.369,0,0,0,1.031-.749l.854-1.73A1.369,1.369,0,0,1,1388.33,1124.684Z" transform="translate(-1316.276 -1123.922)" fill="#fff" opacity="0.35"/></g></g></g><g transform="translate(47.298 209.252)"><path d="M4-1H181.824a5.006,5.006,0,0,1,5,5V76.126a5.006,5.006,0,0,1-5,5H4a5.006,5.006,0,0,1-5-5V4A5.006,5.006,0,0,1,4-1ZM181.824,79.126a3,3,0,0,0,3-3V4a3,3,0,0,0-3-3H4A3,3,0,0,0,1,4V76.126a3,3,0,0,0,3,3Z" fill="#303dcf"/><circle cx="25.246" cy="25.246" r="25.246" transform="translate(8.197 60.939) rotate(-80.783)" fill="#fb8c00"/><g transform="translate(70.854 21.33)"><path d="M94.153,4H0V-4H94.153Z" fill="#303dcf"/><path d="M94.153,4H0V-4H94.153Z" transform="translate(0 18.733)" fill="#303dcf"/><path d="M47.076,4H0V-4H47.076Z" transform="translate(0 37.466)" fill="#303dcf"/></g><g transform="translate(81.076 69.908)"><path d="M1234.827,1559.706h-69.269a10.962,10.962,0,0,1-10.962-10.962h0a10.962,10.962,0,0,1,10.962-10.962h69.269a10.962,10.962,0,0,1,10.962,10.962h0A10.962,10.962,0,0,1,1234.827,1559.706Z" transform="translate(-1154.596 -1537.782)" fill="#1565c0"/><g transform="translate(7.086 5.003)"><path d="M1184.378,1554.333l.854,1.73a1.369,1.369,0,0,0,1.031.749l1.909.278a1.369,1.369,0,0,1,.758,2.334l-1.381,1.347a1.369,1.369,0,0,0-.394,1.212l.326,1.9a1.369,1.369,0,0,1-1.986,1.443l-1.708-.9a1.367,1.367,0,0,0-1.274,0l-1.708.9a1.369,1.369,0,0,1-1.986-1.443l.326-1.9a1.37,1.37,0,0,0-.394-1.212l-1.381-1.347a1.369,1.369,0,0,1,.759-2.334l1.909-.278a1.369,1.369,0,0,0,1.031-.749l.854-1.73A1.369,1.369,0,0,1,1184.378,1554.333Z" transform="translate(-1176.957 -1553.571)" fill="#fcc718"/><path d="M1235.366,1554.333l.854,1.73a1.369,1.369,0,0,0,1.031.749l1.909.278a1.369,1.369,0,0,1,.759,2.334l-1.381,1.347a1.369,1.369,0,0,0-.394,1.212l.326,1.9a1.369,1.369,0,0,1-1.986,1.443l-1.708-.9a1.367,1.367,0,0,0-1.274,0l-1.708.9a1.369,1.369,0,0,1-1.986-1.443l.326-1.9a1.368,1.368,0,0,0-.394-1.212l-1.381-1.347a1.369,1.369,0,0,1,.758-2.334l1.909-.278a1.369,1.369,0,0,0,1.031-.749l.854-1.73A1.369,1.369,0,0,1,1235.366,1554.333Z" transform="translate(-1211.787 -1553.571)" fill="#fcc718"/><path d="M1286.354,1554.333l.854,1.73a1.368,1.368,0,0,0,1.031.749l1.909.278a1.369,1.369,0,0,1,.759,2.334l-1.382,1.347a1.37,1.37,0,0,0-.394,1.212l.326,1.9a1.369,1.369,0,0,1-1.986,1.443l-1.708-.9a1.367,1.367,0,0,0-1.274,0l-1.708.9a1.369,1.369,0,0,1-1.986-1.443l.326-1.9a1.368,1.368,0,0,0-.394-1.212l-1.381-1.347a1.368,1.368,0,0,1,.758-2.334l1.909-.278a1.368,1.368,0,0,0,1.031-.749l.854-1.73A1.369,1.369,0,0,1,1286.354,1554.333Z" transform="translate(-1246.616 -1553.571)" fill="#fcc718"/><path d="M1337.342,1554.333l.854,1.73a1.368,1.368,0,0,0,1.031.749l1.909.278a1.369,1.369,0,0,1,.759,2.334l-1.382,1.347a1.37,1.37,0,0,0-.394,1.212l.326,1.9a1.369,1.369,0,0,1-1.986,1.443l-1.708-.9a1.366,1.366,0,0,0-1.273,0l-1.708.9a1.369,1.369,0,0,1-1.986-1.443l.326-1.9a1.369,1.369,0,0,0-.394-1.212l-1.382-1.347a1.369,1.369,0,0,1,.759-2.334l1.909-.278a1.368,1.368,0,0,0,1.031-.749l.854-1.73A1.369,1.369,0,0,1,1337.342,1554.333Z" transform="translate(-1281.446 -1553.571)" fill="#fff" opacity="0.35"/><path d="M1388.33,1554.333l.854,1.73a1.368,1.368,0,0,0,1.031.749l1.909.278a1.369,1.369,0,0,1,.759,2.334l-1.382,1.347a1.369,1.369,0,0,0-.394,1.212l.326,1.9a1.369,1.369,0,0,1-1.986,1.443l-1.708-.9a1.367,1.367,0,0,0-1.274,0l-1.707.9a1.369,1.369,0,0,1-1.986-1.443l.326-1.9a1.369,1.369,0,0,0-.394-1.212l-1.382-1.347a1.369,1.369,0,0,1,.759-2.334l1.909-.278a1.369,1.369,0,0,0,1.031-.749l.854-1.73A1.369,1.369,0,0,1,1388.33,1554.333Z" transform="translate(-1316.276 -1553.571)" fill="#fff" opacity="0.35"/></g></g></g><g transform="translate(47.298 345.407)"><path d="M7-1H178.824a8.009,8.009,0,0,1,8,8V73.126a8.009,8.009,0,0,1-8,8H7a8.009,8.009,0,0,1-8-8V7A8.009,8.009,0,0,1,7-1ZM178.824,79.126a6.007,6.007,0,0,0,6-6V7a6.007,6.007,0,0,0-6-6H7A6.007,6.007,0,0,0,1,7V73.126a6.007,6.007,0,0,0,6,6Z" fill="#303dcf"/><circle cx="25.246" cy="25.246" r="25.246" transform="translate(8.197 60.939) rotate(-80.783)" fill="#fb8c00"/><g transform="translate(70.854 21.33)"><path d="M94.153,4H0V-4H94.153Z" fill="#303dcf"/><path d="M94.153,4H0V-4H94.153Z" transform="translate(0 18.733)" fill="#303dcf"/><path d="M47.076,4H0V-4H47.076Z" transform="translate(0 37.466)" fill="#303dcf"/></g><g transform="translate(81.076 69.908)"><path d="M1234.827,1989.354h-69.269a10.962,10.962,0,0,1-10.962-10.962h0a10.962,10.962,0,0,1,10.962-10.962h69.269a10.962,10.962,0,0,1,10.962,10.962h0A10.962,10.962,0,0,1,1234.827,1989.354Z" transform="translate(-1154.596 -1967.43)" fill="#1565c0"/><g transform="translate(7.086 5.004)"><path d="M1184.378,1983.983l.854,1.73a1.369,1.369,0,0,0,1.031.749l1.909.277a1.369,1.369,0,0,1,.758,2.335l-1.381,1.347a1.369,1.369,0,0,0-.394,1.211l.326,1.9a1.369,1.369,0,0,1-1.986,1.443l-1.708-.9a1.369,1.369,0,0,0-1.274,0l-1.708.9a1.369,1.369,0,0,1-1.986-1.443l.326-1.9a1.37,1.37,0,0,0-.394-1.211l-1.381-1.347a1.369,1.369,0,0,1,.759-2.335l1.909-.277a1.369,1.369,0,0,0,1.031-.749l.854-1.73A1.369,1.369,0,0,1,1184.378,1983.983Z" transform="translate(-1176.957 -1983.219)" fill="#fcc718"/><path d="M1235.366,1983.983l.854,1.73a1.369,1.369,0,0,0,1.031.749l1.909.277a1.369,1.369,0,0,1,.759,2.335l-1.381,1.347a1.369,1.369,0,0,0-.394,1.211l.326,1.9a1.369,1.369,0,0,1-1.986,1.443l-1.708-.9a1.369,1.369,0,0,0-1.274,0l-1.708.9a1.369,1.369,0,0,1-1.986-1.443l.326-1.9a1.368,1.368,0,0,0-.394-1.211l-1.381-1.347a1.369,1.369,0,0,1,.758-2.335l1.909-.277a1.369,1.369,0,0,0,1.031-.749l.854-1.73A1.369,1.369,0,0,1,1235.366,1983.983Z" transform="translate(-1211.787 -1983.219)" fill="#fcc718"/><path d="M1286.354,1983.983l.854,1.73a1.368,1.368,0,0,0,1.031.749l1.909.277a1.369,1.369,0,0,1,.759,2.335l-1.382,1.347a1.37,1.37,0,0,0-.394,1.211l.326,1.9a1.369,1.369,0,0,1-1.986,1.443l-1.708-.9a1.368,1.368,0,0,0-1.274,0l-1.708.9a1.369,1.369,0,0,1-1.986-1.443l.326-1.9a1.367,1.367,0,0,0-.394-1.211l-1.381-1.347a1.369,1.369,0,0,1,.758-2.335l1.909-.277a1.368,1.368,0,0,0,1.031-.749l.854-1.73A1.369,1.369,0,0,1,1286.354,1983.983Z" transform="translate(-1246.616 -1983.219)" fill="#fcc718"/><path d="M1337.342,1983.983l.854,1.73a1.368,1.368,0,0,0,1.031.749l1.909.277a1.369,1.369,0,0,1,.759,2.335l-1.382,1.347a1.37,1.37,0,0,0-.394,1.211l.326,1.9a1.369,1.369,0,0,1-1.986,1.443l-1.708-.9a1.367,1.367,0,0,0-1.273,0l-1.708.9a1.369,1.369,0,0,1-1.986-1.443l.326-1.9a1.369,1.369,0,0,0-.394-1.211l-1.382-1.347a1.369,1.369,0,0,1,.759-2.335l1.909-.277a1.368,1.368,0,0,0,1.031-.749l.854-1.73A1.369,1.369,0,0,1,1337.342,1983.983Z" transform="translate(-1281.446 -1983.219)" fill="#fff" opacity="0.35"/><path d="M1388.33,1983.983l.854,1.73a1.368,1.368,0,0,0,1.031.749l1.909.277a1.369,1.369,0,0,1,.759,2.335l-1.382,1.347a1.369,1.369,0,0,0-.394,1.211l.326,1.9a1.369,1.369,0,0,1-1.986,1.443l-1.708-.9a1.369,1.369,0,0,0-1.274,0l-1.707.9a1.369,1.369,0,0,1-1.986-1.443l.326-1.9a1.369,1.369,0,0,0-.394-1.211l-1.382-1.347a1.369,1.369,0,0,1,.759-2.335l1.909-.277a1.369,1.369,0,0,0,1.031-.749l.854-1.73A1.369,1.369,0,0,1,1388.33,1983.983Z" transform="translate(-1316.276 -1983.219)" fill="#fff" opacity="0.35"/></g></g></g><path d="M1122.286,2143.317l-.492-.17-32.316-11.209.983-2.834,31.824,11.039,31.824-11.039.983,2.834Z" transform="translate(-982.075 -1663.523)" fill="#303dcf"/><g transform="translate(223.579 40.807)"><path d="M8.836,10.25-.707.707.707-.707,10.25,8.836Z" fill="#303dcf"/><path d="M.707,10.25-.707,8.836,8.836-.707,10.25.707Z" fill="#303dcf"/></g><g transform="translate(45.322 40.939)"><path d="M13.5,1H0V-1H13.5Z" fill="#303dcf"/><path d="M13.5,1H0V-1H13.5Z" transform="translate(0 9.279)" fill="#303dcf"/><path d="M13.5,1H0V-1H13.5Z" transform="translate(0 4.64)" fill="#303dcf"/></g><g transform="translate(70.422)" opacity="0.5" style="mix-blend-mode:overlay;isolation:isolate"><path d="M1339.16,815.6V697.13c.651-17.328-11.476-38.328-36.968-40.26H1202.081Z" transform="translate(-1129.081 -665.87)" fill="#b2bbf9"/></g></g><g transform="translate(978.922 819.927)"><path d="M1546.171,1228.442l-15.057-13.429h-43.226a14.429,14.429,0,0,1-14.429-14.429V1185.84a14.429,14.429,0,0,1,14.429-14.429h43.854a14.429,14.429,0,0,1,14.429,14.429Z" transform="translate(-1473.46 -1171.411)" fill="#fb8c00"/><g transform="translate(7.044 15.084)"><path d="M5.563-1.5A7.063,7.063,0,1,1-1.5,5.563,7.071,7.071,0,0,1,5.563-1.5Zm0,11.127A4.063,4.063,0,1,0,1.5,5.563,4.068,4.068,0,0,0,5.563,9.627Z" transform="translate(0 7.868) rotate(-45)" fill="#fff"/><path d="M5.563-1.5A7.063,7.063,0,1,1-1.5,5.563,7.071,7.071,0,0,1,5.563-1.5Zm0,11.127A4.063,4.063,0,1,0,1.5,5.563,4.068,4.068,0,0,0,5.563,9.627Z" transform="matrix(0.23, -0.973, 0.973, 0.23, 22.619, 12.004)" fill="#fff"/><path d="M5.563-1.5A7.063,7.063,0,1,1-1.5,5.563,7.071,7.071,0,0,1,5.563-1.5Zm0,11.127A4.063,4.063,0,1,0,1.5,5.563,4.068,4.068,0,0,0,5.563,9.627Z" transform="matrix(0.23, -0.973, 0.973, 0.23, 44.062, 12.004)" fill="#fff"/></g></g></g></svg>