<svg xmlns="http://www.w3.org/2000/svg" width="134.917" height="134.919" viewBox="0 0 134.917 134.919"><g transform="translate(5267.344 9628)"><g transform="translate(-5267.344 -9628)"><g transform="translate(0 0)"><path d="M1625.019,981.068a67.456,67.456,0,1,1,62.438,72.126A67.46,67.46,0,0,1,1625.019,981.068Z" transform="translate(-1624.843 -918.453)" fill="#ffbb65" fill-rule="evenodd"/><g transform="translate(10.207 10.211)"><path d="M1641.7,988.306a57.25,57.25,0,1,1,52.993,61.212A57.25,57.25,0,0,1,1641.7,988.306Z" transform="translate(-1641.551 -935.168)" fill="#ffbb65" fill-rule="evenodd"/></g><g transform="translate(17.133 20.874)"><path d="M1736.6,952.625a57.256,57.256,0,0,1-83.71,73.81,57.253,57.253,0,1,0,83.71-73.81Z" transform="translate(-1652.891 -952.625)" fill="#ffbb65" fill-rule="evenodd"/></g><g transform="translate(16.504 16.513)"><path d="M1655.343,998.268a50.535,50.535,0,0,1,92.576-24.22,50.54,50.54,0,1,0-87.687,49.822A50.234,50.234,0,0,1,1655.343,998.268Z" transform="translate(-1651.861 -945.485)" fill="#ffbb65" fill-rule="evenodd"/></g><g transform="translate(48.034 30.479)"><path d="M1730.271,968.813l-.526,7.278a15.3,15.3,0,0,1,6.955,3.408,22.267,22.267,0,0,1,4.827,7.1l-7.53,3.528q-2.838-6.176-8.108-6.555a7.861,7.861,0,0,0-5.56,1.54,6.205,6.205,0,0,0-2.5,4.668,5.941,5.941,0,0,0,1.428,4.508q1.579,1.824,6.608,4.542a69.465,69.465,0,0,1,7.149,4.378,19.72,19.72,0,0,1,4.165,3.784,15.552,15.552,0,0,1,3.407,11.251,17.609,17.609,0,0,1-4.584,10.865,18.365,18.365,0,0,1-10.489,5.734l-.551,7.684-6.5-.468.535-7.458q-7.188-1.717-10.734-5.812t-4.793-12.211l8.287-1.12q1.267,5.763,3.5,8.35a10.57,10.57,0,0,0,13.573.642,8.925,8.925,0,0,0,3.19-6.526,7.921,7.921,0,0,0-1.839-6.062,21.191,21.191,0,0,0-3.22-2.679,60.693,60.693,0,0,0-5.521-3.359q-6.972-3.751-9.041-6.623a14.1,14.1,0,0,1-2.9-9.943,14.254,14.254,0,0,1,1.212-4.914,13.577,13.577,0,0,1,2.771-4,15.376,15.376,0,0,1,4.223-2.963,21.5,21.5,0,0,1,5.536-1.766l.521-7.269Z" transform="translate(-1703.478 -968.35)" fill="#ffbb65" fill-rule="evenodd"/></g></g></g><g transform="translate(-5246.852 -9598.215)"><g transform="translate(0 0)"><g transform="translate(0 0)"><path d="M1799.659,261.777h-90.041a1.77,1.77,0,0,1-1.487-1.955V194.386a1.77,1.77,0,0,1,1.487-1.955h90.041a1.77,1.77,0,0,1,1.487,1.955v65.435A1.77,1.77,0,0,1,1799.659,261.777Z" transform="translate(-1708.131 -192.431)" fill="#fffae7"/><path d="M1799.659,262.527h-90.041a2.086,2.086,0,0,1-1.649-.869,3.041,3.041,0,0,1-.589-1.837V194.386a3.041,3.041,0,0,1,.589-1.837,2.086,2.086,0,0,1,1.649-.869h90.041a2.085,2.085,0,0,1,1.648.869,3.04,3.04,0,0,1,.589,1.837v65.435a3.04,3.04,0,0,1-.589,1.837A2.085,2.085,0,0,1,1799.659,262.527Zm-90.041-69.346c-.349,0-.737.495-.737,1.205v65.435c0,.71.389,1.205.737,1.205h90.041c.349,0,.737-.495.737-1.205V194.386c0-.71-.388-1.205-.737-1.205Z" transform="translate(-1708.131 -192.431)" fill="#226b80"/><path d="M93.015.75H0A.75.75,0,0,1-.75,0,.75.75,0,0,1,0-.75H93.015a.75.75,0,0,1,.75.75A.75.75,0,0,1,93.015.75Z" transform="translate(0 12.458)" fill="#226b80"/><g transform="translate(6.956 3.653)"><path d="M1735.229,208.841a1.972,1.972,0,0,1,1.9-2.181,2.206,2.206,0,1,1-1.9,2.181Z" transform="translate(-1735.229 -206.66)" fill="#c8f2ff"/><path d="M1737.093,211.773a2.471,2.471,0,0,1-1.921-.89,3.159,3.159,0,0,1-.693-2.041,2.646,2.646,0,1,1,5.261,0,3.157,3.157,0,0,1-.686,2.041A2.514,2.514,0,0,1,1737.093,211.773Zm.032-4.363c-.685,0-1.146.575-1.146,1.431,0,.712.344,1.431,1.114,1.431.845,0,1.146-.739,1.146-1.431C1738.24,208.181,1737.948,207.41,1737.125,207.41Z" transform="translate(-1735.229 -206.66)" fill="#226b80"/><path d="M1763.19,208.841a1.972,1.972,0,0,1,1.9-2.181,2.206,2.206,0,1,1-1.9,2.181Z" transform="translate(-1756.012 -206.66)" fill="#c8f2ff"/><path d="M1765.054,211.773a2.471,2.471,0,0,1-1.921-.89,3.159,3.159,0,0,1-.694-2.041,2.646,2.646,0,1,1,5.261,0,3.158,3.158,0,0,1-.686,2.041A2.514,2.514,0,0,1,1765.054,211.773Zm.032-4.363c-.686,0-1.146.575-1.146,1.431,0,.712.345,1.431,1.115,1.431.845,0,1.147-.739,1.147-1.431C1766.2,208.181,1765.909,207.41,1765.086,207.41Z" transform="translate(-1756.012 -206.66)" fill="#226b80"/><path d="M1791.825,208.841a1.972,1.972,0,0,1,1.9-2.181,2.206,2.206,0,1,1-1.9,2.181Z" transform="translate(-1777.297 -206.66)" fill="#c8f2ff"/><path d="M1793.689,211.773a2.47,2.47,0,0,1-1.921-.89,3.159,3.159,0,0,1-.693-2.041,2.646,2.646,0,1,1,5.26,0,3.158,3.158,0,0,1-.686,2.041A2.513,2.513,0,0,1,1793.689,211.773Zm.032-4.363c-.685,0-1.146.575-1.146,1.431,0,.712.344,1.431,1.114,1.431.845,0,1.146-.739,1.146-1.431C1794.835,208.181,1794.543,207.41,1793.721,207.41Z" transform="translate(-1777.297 -206.66)" fill="#226b80"/></g><path d="M1878.849,279.527h-51.479a2.19,2.19,0,0,1-2.127-2.248V266.293a2.19,2.19,0,0,1,2.127-2.248h51.479a2.19,2.19,0,0,1,2.126,2.248v10.985A2.19,2.19,0,0,1,1878.849,279.527Z" transform="translate(-1795.181 -245.662)" fill="#c8f2ff"/><path d="M1878.849,280.277h-51.479a2.943,2.943,0,0,1-2.877-3V266.293a2.943,2.943,0,0,1,2.877-3h51.479a2.943,2.943,0,0,1,2.876,3v10.985A2.943,2.943,0,0,1,1878.849,280.277ZM1827.371,264.8a1.443,1.443,0,0,0-1.377,1.5v10.985a1.443,1.443,0,0,0,1.377,1.5h51.479a1.443,1.443,0,0,0,1.376-1.5V266.293a1.443,1.443,0,0,0-1.376-1.5Z" transform="translate(-1795.181 -245.662)" fill="#226b80"/><g transform="translate(7.607 40.47)"><g transform="translate(0 12.933)"><path d="M19.413.75H0A.75.75,0,0,1-.75,0,.75.75,0,0,1,0-.75H19.413a.75.75,0,0,1,.75.75A.75.75,0,0,1,19.413.75Z" fill="#226b80"/><path d="M19.413.75H0A.75.75,0,0,1-.75,0,.75.75,0,0,1,0-.75H19.413a.75.75,0,0,1,.75.75A.75.75,0,0,1,19.413.75Z" transform="translate(0 4.075)" fill="#226b80"/><path d="M19.413.75H0A.75.75,0,0,1-.75,0,.75.75,0,0,1,0-.75H19.413a.75.75,0,0,1,.75.75A.75.75,0,0,1,19.413.75Z" transform="translate(0 8.725)" fill="#226b80"/></g><rect width="6.976" height="7.644" transform="translate(6.218)" fill="#fadc8c"/><path d="M0-.75H6.976a.75.75,0,0,1,.75.75V7.644a.75.75,0,0,1-.75.75H0a.75.75,0,0,1-.75-.75V0A.75.75,0,0,1,0-.75ZM6.226.75H.75V6.894H6.226Z" transform="translate(6.218)" fill="#226b80"/></g><g transform="translate(36.255 40.47)"><g transform="translate(0 12.933)"><path d="M19.413.75H0A.75.75,0,0,1-.75,0,.75.75,0,0,1,0-.75H19.413a.75.75,0,0,1,.75.75A.75.75,0,0,1,19.413.75Z" fill="#226b80"/><path d="M19.413.75H0A.75.75,0,0,1-.75,0,.75.75,0,0,1,0-.75H19.413a.75.75,0,0,1,.75.75A.75.75,0,0,1,19.413.75Z" transform="translate(0 4.075)" fill="#226b80"/><path d="M19.413.75H0A.75.75,0,0,1-.75,0,.75.75,0,0,1,0-.75H19.413a.75.75,0,0,1,.75.75A.75.75,0,0,1,19.413.75Z" transform="translate(0 8.725)" fill="#226b80"/></g><rect width="6.976" height="7.644" transform="translate(6.218)" fill="#fadc8c"/><path d="M0-.75H6.976a.75.75,0,0,1,.75.75V7.644a.75.75,0,0,1-.75.75H0a.75.75,0,0,1-.75-.75V0A.75.75,0,0,1,0-.75ZM6.226.75H.75V6.894H6.226Z" transform="translate(6.218)" fill="#226b80"/></g><g transform="translate(65.339 40.47)"><g transform="translate(0 12.933)"><path d="M19.413.75H0A.75.75,0,0,1-.75,0,.75.75,0,0,1,0-.75H19.413a.75.75,0,0,1,.75.75A.75.75,0,0,1,19.413.75Z" fill="#226b80"/><path d="M19.413.75H0A.75.75,0,0,1-.75,0,.75.75,0,0,1,0-.75H19.413a.75.75,0,0,1,.75.75A.75.75,0,0,1,19.413.75Z" transform="translate(0 4.075)" fill="#226b80"/><path d="M19.413.75H0A.75.75,0,0,1-.75,0,.75.75,0,0,1,0-.75H19.413a.75.75,0,0,1,.75.75A.75.75,0,0,1,19.413.75Z" transform="translate(0 8.725)" fill="#226b80"/></g><rect width="6.976" height="7.644" transform="translate(6.218)" fill="#fadc8c"/><path d="M0-.75H6.976a.75.75,0,0,1,.75.75V7.644a.75.75,0,0,1-.75.75H0a.75.75,0,0,1-.75-.75V0A.75.75,0,0,1,0-.75ZM6.226.75H.75V6.894H6.226Z" transform="translate(6.218)" fill="#226b80"/></g></g></g><circle cx="5.319" cy="5.319" r="5.319" transform="translate(11.813 20.873)" fill="#fadc8c"/><path d="M5.319-.75A6.069,6.069,0,1,1-.75,5.319,6.076,6.076,0,0,1,5.319-.75Zm0,10.639A4.569,4.569,0,1,0,.75,5.319,4.575,4.575,0,0,0,5.319,9.889Z" transform="translate(11.813 20.873)" fill="#226b80"/></g></g></svg>