<svg xmlns="http://www.w3.org/2000/svg" width="134.917" height="134.919" viewBox="0 0 134.917 134.919"><g transform="translate(5267 8716)"><g transform="translate(-5267 -8716)"><g transform="translate(0 0)"><path d="M1625.019,981.068a67.456,67.456,0,1,1,62.438,72.126A67.46,67.46,0,0,1,1625.019,981.068Z" transform="translate(-1624.843 -918.453)" fill="#ffbb65" fill-rule="evenodd"/><g transform="translate(10.207 10.211)"><path d="M1641.7,988.306a57.25,57.25,0,1,1,52.993,61.212A57.25,57.25,0,0,1,1641.7,988.306Z" transform="translate(-1641.551 -935.168)" fill="#ffbb65" fill-rule="evenodd"/></g><g transform="translate(17.133 20.874)"><path d="M1736.6,952.625a57.256,57.256,0,0,1-83.71,73.81,57.253,57.253,0,1,0,83.71-73.81Z" transform="translate(-1652.891 -952.625)" fill="#ffbb65" fill-rule="evenodd"/></g><g transform="translate(16.504 16.513)"><path d="M1655.343,998.268a50.535,50.535,0,0,1,92.576-24.22,50.54,50.54,0,1,0-87.687,49.822A50.234,50.234,0,0,1,1655.343,998.268Z" transform="translate(-1651.861 -945.485)" fill="#ffbb65" fill-rule="evenodd"/></g></g></g><g transform="translate(294.093 -509.608)"><g transform="translate(-5540.093 -8185.392)"><circle cx="41.92" cy="41.92" r="41.92" transform="translate(4.727 4.727)" fill="#c5fbfc"/><path d="M41.92-1A42.931,42.931,0,0,1,58.626,81.466,42.931,42.931,0,0,1,25.213,2.373,42.652,42.652,0,0,1,41.92-1Zm0,83.839A40.92,40.92,0,1,0,1,41.92,40.966,40.966,0,0,0,41.92,82.839Z" transform="translate(4.727 4.727)" fill="#226b80"/><circle cx="34.164" cy="34.164" r="34.164" transform="translate(12.483 12.483)" fill="#fff"/><path d="M34.164-1A35.173,35.173,0,0,1,47.851,66.564a35.173,35.173,0,0,1-27.375-64.8A34.944,34.944,0,0,1,34.164-1Zm0,68.328A33.164,33.164,0,1,0,1,34.164,33.2,33.2,0,0,0,34.164,67.328Z" transform="translate(12.483 12.483)" fill="#226b80"/><circle cx="34.164" cy="34.164" r="34.164" transform="translate(12.483 12.483)" fill="#fffae7"/><path d="M34.164-1A35.173,35.173,0,0,1,47.851,66.564a35.173,35.173,0,0,1-27.375-64.8A34.944,34.944,0,0,1,34.164-1Zm0,68.328A33.164,33.164,0,1,0,1,34.164,33.2,33.2,0,0,0,34.164,67.328Z" transform="translate(12.483 12.483)" fill="#226b80"/><path d="M16.577,1H0A1,1,0,0,1-1,0,1,1,0,0,1,0-1H16.577a1,1,0,0,1,1,1A1,1,0,0,1,16.577,1Z" transform="translate(0 46.646)" fill="#226b80"/><path d="M16.577,1H0A1,1,0,0,1-1,0,1,1,0,0,1,0-1H16.577a1,1,0,0,1,1,1A1,1,0,0,1,16.577,1Z" transform="translate(76.715 46.646)" fill="#226b80"/><path d="M0,17.577a1,1,0,0,1-1-1V0A1,1,0,0,1,0-1,1,1,0,0,1,1,0V16.577A1,1,0,0,1,0,17.577Z" transform="translate(45.9 76.715)" fill="#226b80"/><path d="M0,17.577a1,1,0,0,1-1-1V0A1,1,0,0,1,0-1,1,1,0,0,1,1,0V16.577A1,1,0,0,1,0,17.577Z" transform="translate(45.9 0)" fill="#226b80"/></g><g transform="translate(-5521.23 -8166.137)"><circle cx="19.368" cy="19.368" r="19.368" transform="translate(0 27.39) rotate(-45)" fill="#fff"/><path d="M19.368-.75A20.123,20.123,0,0,1,27.2,37.9,20.123,20.123,0,0,1,11.537.831,19.993,19.993,0,0,1,19.368-.75Zm0,38.736A18.618,18.618,0,1,0,.75,19.368,18.639,18.639,0,0,0,19.368,37.986Z" transform="translate(0 27.39) rotate(-45)" fill="#226b80"/></g><g transform="translate(-5502.447 -8152.11)"><ellipse cx="4.572" cy="4.733" rx="4.572" ry="4.733" transform="translate(3.883)" fill="#fff"/><path d="M4.572-.75A5.411,5.411,0,0,1,9.894,4.733a5.411,5.411,0,0,1-5.322,5.483A5.411,5.411,0,0,1-.75,4.733,5.411,5.411,0,0,1,4.572-.75Zm0,9.467A3.91,3.91,0,0,0,8.394,4.733,3.91,3.91,0,0,0,4.572.75,3.91,3.91,0,0,0,.75,4.733,3.91,3.91,0,0,0,4.572,8.717Z" transform="translate(3.883)" fill="#226b80"/><path d="M1200.434,1115.337s-.425-9.191-5.854-9.36c-2.222-.069-4.146-.043-5.759-.011-5.659.11-5.6,9.426-5.6,9.429h0c0,.833,3.854,1.508,8.607,1.508s8.607-.675,8.607-1.508a.284.284,0,0,0-.008-.058Z" transform="translate(-1183.22 -1093.579)" fill="#a8f3a0"/><path d="M1191.827,1117.653a37.882,37.882,0,0,1-6.215-.453,9.908,9.908,0,0,1-2-.525c-.756-.313-1.139-.744-1.139-1.28a18.936,18.936,0,0,1,.713-4.9c1.009-3.4,2.954-5.228,5.623-5.279.824-.016,1.811-.033,2.879-.033,1.014,0,1.968.014,2.917.044,2.56.08,4.514,1.9,5.65,5.252a19.62,19.62,0,0,1,.93,4.822c0,.021,0,.042,0,.063s0,.02,0,.03c0,.536-.383.967-1.139,1.28a9.9,9.9,0,0,1-2,.525A37.883,37.883,0,0,1,1191.827,1117.653Zm-7.854-2.464a7.612,7.612,0,0,0,2.419.618,42.818,42.818,0,0,0,10.87,0,7.715,7.715,0,0,0,2.411-.614c-.094-1.228-.828-8.332-5.116-8.466-.933-.029-1.872-.043-2.871-.043-1.055,0-2.033.016-2.85.032C1184.4,1106.8,1184.008,1113.889,1183.973,1115.188Z" transform="translate(-1183.22 -1093.579)" fill="#226b80"/></g></g></g></svg>