<svg xmlns="http://www.w3.org/2000/svg" xmlns:xlink="http://www.w3.org/1999/xlink" width="400" height="573" viewBox="0 0 400 573"><defs><linearGradient id="a" x1="-0.088" y1="1.024" x2="0.728" y2="0.275" gradientUnits="objectBoundingBox"><stop offset="0" stop-color="#1565c0"/><stop offset="1" stop-color="#1a0f91"/></linearGradient><linearGradient id="b" x1="0.38" y1="0.601" x2="-0.981" y2="1.752" gradientUnits="objectBoundingBox"><stop offset="0" stop-color="#4042e2"/><stop offset="1" stop-color="#4f52ff"/></linearGradient><linearGradient id="c" x1="239.664" y1="-33.921" x2="228.431" y2="-33.531" gradientUnits="objectBoundingBox"><stop offset="0" stop-color="#09005d"/><stop offset="1" stop-color="#1a0f91"/></linearGradient><linearGradient id="d" x1="59.256" y1="-132.197" x2="58.869" y2="-133.133" xlink:href="#c"/><linearGradient id="e" x1="287.307" y1="-49.704" x2="278.792" y2="-49.312" xlink:href="#c"/><linearGradient id="f" x1="70.839" y1="-145.495" x2="70.451" y2="-146.431" xlink:href="#c"/><linearGradient id="g" x1="332.699" y1="-41.664" x2="321.738" y2="-41.273" xlink:href="#c"/><linearGradient id="h" x1="81.977" y1="-157.994" x2="81.589" y2="-158.93" xlink:href="#c"/><linearGradient id="i" x1="0.982" y1="-0.027" x2="-0.16" y2="0.597" xlink:href="#c"/><linearGradient id="j" x1="81.583" y1="-132.224" x2="81.195" y2="-133.16" xlink:href="#c"/><linearGradient id="k" x1="-10.956" y1="-0.02" x2="-12.103" y2="0.599" xlink:href="#c"/><linearGradient id="l" x1="59.139" y1="-55.806" x2="58.751" y2="-56.742" xlink:href="#c"/><linearGradient id="m" x1="0" y1="0.5" x2="1" y2="0.5" xlink:href="#c"/></defs><g transform="translate(-1020 -4708)"><rect width="400" height="573" transform="translate(1020 4708)" fill="#f3f9ff"/><g transform="translate(400.07 4603.947)"><path d="M966.53,200.467a13.34,13.34,0,0,0-9.6-4.079l-274.011.162a13.34,13.34,0,0,0-9.6,4.092,13.5,13.5,0,0,0-3.763,9.779l10.862,352.026a13.277,13.277,0,0,0,13.37,12.879H946.653a13.278,13.278,0,0,0,13.371-12.9l10.283-352.267A13.314,13.314,0,0,0,966.53,200.467Z" transform="translate(0)" fill="url(#a)"/><path d="M987.186,257.124a12.192,12.192,0,0,0-8.776-3.727l-250.447.148a12.2,12.2,0,0,0-8.774,3.74,12.334,12.334,0,0,0-3.44,8.937l9.928,321.74A12.148,12.148,0,0,0,737.9,599.747H969.018a12.148,12.148,0,0,0,12.221-11.806l9.4-321.952A12.186,12.186,0,0,0,987.186,257.124Z" transform="translate(-32.781 -40.454)" fill="#e3fcff"/><g transform="translate(707.416 221.004)"><g transform="translate(85.422)"><ellipse cx="25.172" cy="25.316" rx="25.172" ry="25.316" transform="translate(2.56 1.931)" fill="#26aab7"/></g><g transform="translate(85.422 269.035)"><ellipse cx="27.092" cy="27.247" rx="27.092" ry="27.247" fill="url(#b)"/></g><path d="M1117.306,599.479l-28.789,28.812,28.647,28.954,28.789-28.812Z" transform="translate(-1004.722 -507.041)" fill="#fb8c00"/><g transform="translate(167.029 180.528)"><path d="M1434.664,923.281a15.889,15.889,0,0,1-15.9,16.033h-20.789a15.889,15.889,0,0,1-15.9-16.033h0a15.889,15.889,0,0,1,15.9-16.033h20.789a15.889,15.889,0,0,1,15.9,16.033Z" transform="translate(-1380.067 -905.965)" fill="#fb8c00"/></g><g transform="translate(84.474 180.528)"><path d="M1150.375,923.281a15.889,15.889,0,0,1-15.9,16.033h-20.789a15.889,15.889,0,0,1-15.9-16.033h0a15.889,15.889,0,0,1,15.9-16.033h20.789a15.889,15.889,0,0,1,15.9,16.033Z" transform="translate(-1095.778 -905.965)" fill="#fb8c00"/></g><g transform="translate(0 180.528)"><path d="M859.474,923.281a15.889,15.889,0,0,1-15.9,16.033H822.788a15.889,15.889,0,0,1-15.9-16.033h0a15.889,15.889,0,0,1,15.9-16.033h20.789a15.889,15.889,0,0,1,15.9,16.033Z" transform="translate(-804.877 -905.965)" fill="#fb8c00"/></g><g transform="translate(108.583 57.077)"><path d="M1187.668,504a.962.962,0,0,1-.962-.962v-24.37a.962.962,0,1,1,1.924,0v24.37A.962.962,0,0,1,1187.668,504Z" transform="translate(-1182.98 -477.707)" fill="url(#c)"/><path d="M1181.737,551.69l-3.931,6.848-3.931-6.848Z" transform="translate(-1173.875 -530.206)" fill="url(#d)"/></g><g transform="translate(108.583 154.555)"><path d="M1187.668,833.27a.962.962,0,0,1-.962-.962V814.351a.962.962,0,1,1,1.924,0v17.956A.962.962,0,0,1,1187.668,833.27Z" transform="translate(-1182.98 -813.389)" fill="url(#e)"/><path d="M1181.737,865.288l-3.931,6.848-3.931-6.848Z" transform="translate(-1173.875 -850.217)" fill="url(#f)"/></g><g transform="translate(107.598 235.36)"><path d="M1183.251,1117.3a.962.962,0,0,1-.962-.962v-23.728a.962.962,0,1,1,1.924,0v23.728A.962.962,0,0,1,1183.251,1117.3Z" transform="translate(-1178.862 -1091.652)" fill="url(#g)"/><path d="M1178.349,1163.426l-3.931,6.848-3.931-6.848Z" transform="translate(-1170.486 -1142.584)" fill="url(#h)"/></g><g transform="translate(20.908 120.245)"><path d="M885.112,743.016a.962.962,0,0,1-.962-.962V696.2a.962.962,0,0,1,.962-.962H938.02a.962.962,0,0,1,0,1.924H886.074v44.892A.962.962,0,0,1,885.112,743.016Z" transform="translate(-880.609 -695.238)" fill="url(#i)"/><path d="M879.818,854.245l-3.931,6.848-3.931-6.848Z" transform="translate(-871.956 -808.071)" fill="url(#j)"/></g><g transform="translate(147.901 120.245)"><path d="M1362.5,743.016a.962.962,0,0,1-.962-.962V697.162h-51.3a.962.962,0,1,1,0-1.924H1362.5a.962.962,0,0,1,.962.962v45.853A.962.962,0,0,1,1362.5,743.016Z" transform="translate(-1309.274 -695.238)" fill="url(#k)"/><path d="M1479.888,854.245l3.931,6.848,3.931-6.848Z" transform="translate(-1430.343 -808.071)" fill="url(#l)"/></g><path d="M1058.622,1050.943H882.9a.962.962,0,0,1-.962-.962v-16.995a.962.962,0,1,1,1.924,0v16.033H1057.66v-16.033a.962.962,0,1,1,1.924,0v16.995A.961.961,0,0,1,1058.622,1050.943Z" transform="translate(-858.134 -813.98)" fill="url(#m)"/></g><g transform="translate(698.518 229.02)"><path d="M843.7,313.088a4.2,4.2,0,0,1-4.271,4.011H773.3a3.958,3.958,0,0,1-3.992-4.011v-.215a4.044,4.044,0,0,1,3.992-4.112h66.129a4.285,4.285,0,0,1,4.271,4.112Z" transform="translate(-769.312 -308.762)" fill="#7d97f4"/><path d="M843.7,377.2a4.144,4.144,0,0,1-4.271,3.943H773.3a3.9,3.9,0,0,1-3.992-3.943v-.215a4.1,4.1,0,0,1,3.992-4.179h66.129a4.343,4.343,0,0,1,4.271,4.179Z" transform="translate(-769.312 -354.209)" fill="#7d97f4"/></g></g></g></svg>